<svg width="16" height="15" viewBox="0 0 16 15" fill="none" xmlns="http://www.w3.org/2000/svg">
<path d="M1 7.88236V4.89413C1 4.33408 1 4.05405 1.10899 3.84014C1.20487 3.65198 1.35785 3.499 1.54601 3.40312C1.75992 3.29413 2.03995 3.29413 2.6 3.29413H3.29412" stroke="#8B8B8B" stroke-width="2"/>
<path d="M14.7646 7.88236V4.89413C14.7646 4.33408 14.7646 4.05405 14.6557 3.84014C14.5598 3.65198 14.4068 3.499 14.2186 3.40312C14.0047 3.29413 13.7247 3.29413 13.1646 3.29413H12.4705" stroke="#8B8B8B" stroke-width="2"/>
<path d="M2.5293 1.76471L4.82341 3.29412L2.5293 4.82353V1.76471Z" fill="#8B8B8B"/>
<path d="M13.2354 1.76471L10.9412 3.29412L13.2354 4.82353V1.76471Z" fill="#8B8B8B"/>
<path d="M10.1763 10.9412C10.1763 10.4476 10.1763 10.2008 10.2615 10.0078C10.3622 9.77982 10.5443 9.59762 10.7723 9.49695C10.9653 9.41174 11.2121 9.41174 11.7057 9.41174V9.41174L12.4704 10.1764H13.1645C13.7246 10.1764 14.0046 10.1764 14.2185 10.2854C14.4067 10.3813 14.5596 10.5343 14.6555 10.7225C14.7645 10.9364 14.7645 11.2164 14.7645 11.7764V12.4C14.7645 12.96 14.7645 13.2401 14.6555 13.454C14.5596 13.6421 14.4067 13.7951 14.2185 13.891C14.0046 14 13.7246 14 13.1645 14H11.7763C11.2162 14 10.9362 14 10.7223 13.891C10.5341 13.7951 10.3811 13.6421 10.2853 13.454C10.1763 13.2401 10.1763 12.96 10.1763 12.4V10.9412Z" stroke="#8B8B8B" stroke-width="2" stroke-linejoin="round"/>
<path d="M1 10.9412C1 10.4476 1 10.2008 1.08521 10.0078C1.18588 9.77982 1.36807 9.59762 1.59608 9.49695C1.78905 9.41174 2.03584 9.41174 2.52941 9.41174V9.41174L3.29412 10.1764H3.98824C4.54829 10.1764 4.82831 10.1764 5.04223 10.2854C5.23039 10.3813 5.38337 10.5343 5.47924 10.7225C5.58824 10.9364 5.58824 11.2164 5.58824 11.7764V12.4C5.58824 12.96 5.58824 13.2401 5.47924 13.454C5.38337 13.6421 5.23039 13.7951 5.04223 13.891C4.82831 14 4.54829 14 3.98824 14H2.6C2.03995 14 1.75992 14 1.54601 13.891C1.35785 13.7951 1.20487 13.6421 1.10899 13.454C1 13.2401 1 12.96 1 12.4V10.9412Z" stroke="#8B8B8B" stroke-width="2" stroke-linejoin="round"/>
<path d="M5.58838 2.52941C5.58838 2.03584 5.58838 1.78905 5.67358 1.59608C5.77426 1.36807 5.95645 1.18588 6.18446 1.08521C6.37743 1 6.62422 1 7.11779 1V1L7.8825 1.76471H8.57661C9.13667 1.76471 9.41669 1.76471 9.6306 1.8737C9.81877 1.96957 9.97175 2.12255 10.0676 2.31072C10.1766 2.52463 10.1766 2.80465 10.1766 3.36471V3.98824C10.1766 4.54829 10.1766 4.82831 10.0676 5.04223C9.97175 5.23039 9.81877 5.38337 9.6306 5.47924C9.41669 5.58824 9.13667 5.58824 8.57661 5.58824H7.18838C6.62833 5.58824 6.3483 5.58824 6.13439 5.47924C5.94623 5.38337 5.79325 5.23039 5.69737 5.04223C5.58838 4.82831 5.58838 4.54829 5.58838 3.98824V2.52941Z" stroke="#8B8B8B" stroke-width="2" stroke-linejoin="round"/>
</svg>
